<svg xmlns="http://www.w3.org/2000/svg" width="77.441" height="89.5" viewBox="0 0 77.441 89.5">
  <g id="Group_43151" data-name="Group 43151" transform="translate(-727 -1422.128)">
    <path id="Path_3808" data-name="Path 3808" d="M109.981-33.919,73.932,2.5l-.254.257a3.537,3.537,0,0,1-5.069,0L32.54-33.911V-52.788L47.465-68.174a3.8,3.8,0,0,1,2.727-1.146h0a3.814,3.814,0,0,1,2.739,1.157L71.141-49.541,89.409-68.164a3.811,3.811,0,0,1,2.736-1.156h0a3.815,3.815,0,0,1,2.74,1.157l15.094,15.382Z" transform="translate(694.46 1491.448)" fill="#f7af20" opacity="0.1"/>
    <g id="Group_517" data-name="Group 517" transform="translate(697.489 -24.884)">
      <g id="Group_439" data-name="Group 439" transform="translate(34.511 1470.884)">
        <g id="Group_438" data-name="Group 438">
          <path id="Path_39" data-name="Path 39" d="M64.245,38.175H3.267A3.175,3.175,0,0,1,0,35.109V33.066A3.175,3.175,0,0,1,3.267,30H64.245a3.175,3.175,0,0,1,3.267,3.066v2.044a3.175,3.175,0,0,1-3.267,3.066M3.267,32.044a1.057,1.057,0,0,0-1.089,1.022v2.044a1.057,1.057,0,0,0,1.089,1.022H64.245a1.057,1.057,0,0,0,1.089-1.022V33.066a1.057,1.057,0,0,0-1.089-1.022Z" transform="translate(0 2.967)" fill="#f7af20" stroke="rgba(0,0,0,0)" stroke-width="1"/>
          <rect id="Rectangle_28" data-name="Rectangle 28" width="61.614" height="24.23" transform="translate(3.111 40.898)" fill="none" stroke="#f7af20" stroke-width="1"/>
          <path id="Path_40" data-name="Path 40" d="M28.2,31.24H26.161V26.919a3.078,3.078,0,0,0-1.99-2.871l-5.523-2.071.719-1.914,5.522,2.071A5.135,5.135,0,0,1,28.2,26.919Z" transform="translate(1.878 2.072)" fill="#f7af20" stroke="rgba(0,0,0,0)" stroke-width="1"/>
          <path id="Path_41" data-name="Path 41" d="M6.044,31.24H4V26.919a5.135,5.135,0,0,1,3.315-4.785l5.522-2.071.719,1.914L8.033,24.048a3.078,3.078,0,0,0-1.99,2.871Z" transform="translate(0.087 2.072)" fill="#f7af20" stroke="rgba(0,0,0,0)" stroke-width="1"/>
          <path id="Path_42" data-name="Path 42" d="M16.088,25.131A4.092,4.092,0,0,1,12,21.044V19h2.044v2.044a2.044,2.044,0,0,0,4.088,0V19h2.044v2.044a4.092,4.092,0,0,1-4.088,4.088" transform="translate(1.187 1.827)" fill="#f7af20" stroke="rgba(0,0,0,0)" stroke-width="1"/>
          <path id="Path_43" data-name="Path 43" d="M16.2,0A9.207,9.207,0,0,0,7,9.2v4.088H8.022a3.066,3.066,0,0,1,3.066-3.066,10.127,10.127,0,0,0,5.616-1.7l.515-.343.6.6a4.934,4.934,0,0,0,3.489,1.445,3.066,3.066,0,0,1,3.066,3.066h1.022V9.2A9.207,9.207,0,0,0,16.2,0" transform="translate(0.153)" fill="#f7af20" stroke="rgba(0,0,0,0)" stroke-width="1"/>
          <path id="Path_44" data-name="Path 44" d="M16.131,21.241A6.138,6.138,0,0,1,10,15.109V10h2.044v5.109a4.088,4.088,0,0,0,8.175,0V10h2.044v5.109a6.138,6.138,0,0,1-6.131,6.131" transform="translate(1.049 1.034)" fill="#f7af20" stroke="rgba(0,0,0,0)" stroke-width="1"/>
          <path id="Path_45" data-name="Path 45" d="M21.307,17.225V15.181a2.044,2.044,0,1,0,0-4.088A6,6,0,0,1,17.1,9.349l-.008-.008a11.109,11.109,0,0,1-6,1.753,2.044,2.044,0,0,0,0,4.088v2.044a4.088,4.088,0,0,1,0-8.175,9.08,9.08,0,0,0,5.049-1.529l1.212-.808L18.54,7.9A3.938,3.938,0,0,0,21.307,9.05a4.088,4.088,0,0,1,0,8.175" transform="translate(0.153 0.146)" fill="#f7af20" stroke="rgba(0,0,0,0)" stroke-width="1"/>
          <rect id="Rectangle_29" data-name="Rectangle 29" width="2.077" height="4.846" transform="translate(24.019 28.916)" fill="#f7af20" stroke="rgba(0,0,0,0)" stroke-width="1"/>
          <rect id="Rectangle_30" data-name="Rectangle 30" width="2.077" height="4.846" transform="translate(8.649 28.916)" fill="#f7af20" stroke="rgba(0,0,0,0)" stroke-width="1"/>
          <path id="Path_46" data-name="Path 46" d="M44.219,31.241H42.175v-9.2H36.044v9.2H34V20H44.219Z" transform="translate(3.462 2.069)" fill="#f7af20" stroke="rgba(0,0,0,0)" stroke-width="1"/>
          <path id="Path_47" data-name="Path 47" d="M52.2,31.2H50.153V24.044H43V22h9.2Z" transform="translate(4.313 2.208)" fill="#f7af20" stroke="rgba(0,0,0,0)" stroke-width="1"/>
          <rect id="Rectangle_31" data-name="Rectangle 31" width="25.68" height="1.657" transform="translate(6.198 45.933)" fill="#f7af20" stroke="rgba(0,0,0,0)" stroke-width="1"/>
          <rect id="Rectangle_32" data-name="Rectangle 32" width="2.077" height="2.077" transform="translate(31.412 50.05)" fill="#f7af20" stroke="rgba(0,0,0,0)" stroke-width="1"/>
          <rect id="Rectangle_33" data-name="Rectangle 33" width="16.615" height="2.077" transform="translate(12.433 50.05)" fill="#f7af20" stroke="rgba(0,0,0,0)" stroke-width="1"/>
          <rect id="Rectangle_34" data-name="Rectangle 34" width="2.769" height="2.077" transform="translate(6.572 50.05)" fill="#f7af20" stroke="rgba(0,0,0,0)" stroke-width="1"/>
          <rect id="Rectangle_35" data-name="Rectangle 35" width="24.922" height="2.077" transform="translate(6.572 54.485)" fill="#f7af20" stroke="rgba(0,0,0,0)" stroke-width="1"/>
          <path id="Path_49" data-name="Path 49" d="M62.7,18.394H30V0H62.7ZM32.044,16.35H60.657V2.044H32.044Z" transform="translate(4.808)" fill="#f7af20" stroke="rgba(0,0,0,0)" stroke-width="1"/>
          <path id="Path_50" data-name="Path 50" d="M44.219,17.285H42.175V6.044H36.044V17.285H34V4H44.219Z" transform="translate(3.462 0.087)" fill="#f7af20" stroke="rgba(0,0,0,0)" stroke-width="1"/>
          <path id="Path_51" data-name="Path 51" d="M52.2,17.241H50.153v-9.2H43V6h9.2Z" transform="translate(4.313 0.131)" fill="#f7af20" stroke="rgba(0,0,0,0)" stroke-width="1"/>
          <path id="Path_52" data-name="Path 52" d="M58.153,17.2H56.109V10.044H51V8h7.153Z" transform="translate(5.268 0.175)" fill="#f7af20" stroke="rgba(0,0,0,0)" stroke-width="1"/>
        </g>
      </g>
    </g>
  </g>
</svg>
