<svg xmlns="http://www.w3.org/2000/svg" width="82.5" height="87.485" viewBox="0 0 82.5 87.485">
  <g id="Group_43152" data-name="Group 43152" transform="translate(-1267 -1438)">
    <path id="Path_3802" data-name="Path 3802" d="M115.04-31.606l-38.4,38.8-.271.274a3.768,3.768,0,0,1-5.4,0L32.54-31.6v-20.11L48.44-68.1a4.046,4.046,0,0,1,2.9-1.22h0a4.064,4.064,0,0,1,2.917,1.232l19.4,19.839,19.461-19.84a4.06,4.06,0,0,1,2.914-1.231h0a4.064,4.064,0,0,1,2.919,1.232L115.037-51.7Z" transform="translate(1234.46 1507.32)" fill="#3ebed5" opacity="0.2"/>
    <g id="Group_443" data-name="Group 443" transform="translate(1130.298 1338.325)">
      <g id="Group_442" data-name="Group 442" transform="translate(146.857 125.604)">
        <path id="Path_53" data-name="Path 53" d="M44,41v3.971l.048.075a7.925,7.925,0,0,1,6.5,10.345l.315.5h5.05V41Z" transform="translate(-0.199 -0.293)" fill="#3ebed5"/>
        <path id="Path_54" data-name="Path 54" d="M54.748,11.365l-4.69-9.379H11.572l-4.69,9.379-1.776-.889L10.344,0H51.286l5.238,10.476Z" transform="translate(0.079 0)" fill="#3ebed5"/>
        <path id="Path_55" data-name="Path 55" d="M42.936,61.871a8.936,8.936,0,1,1,8.936-8.936,8.945,8.945,0,0,1-8.936,8.936m0-15.885a6.95,6.95,0,1,0,6.95,6.95,6.959,6.959,0,0,0-6.95-6.95" transform="translate(-0.128 -0.315)" fill="#3ebed5"/>
        <rect id="Rectangle_36" data-name="Rectangle 36" width="16.153" height="1.615" transform="translate(34.729 51.937)" fill="#3ebed5"/>
        <path id="Path_56" data-name="Path 56" d="M59.843,38.957H39.986A1.989,1.989,0,0,1,38,36.971V34.986A1.988,1.988,0,0,1,39.986,33H59.843a1.988,1.988,0,0,1,1.986,1.986v1.986a1.988,1.988,0,0,1-1.986,1.986M39.986,34.986v1.986H59.845l0-1.986Z" transform="translate(-0.157 -0.236)" fill="#3ebed5"/>
        <path id="Path_57" data-name="Path 57" d="M35.541,57.742H3V22H4.986V55.757H35.541Z" transform="translate(0.093 -0.157)" fill="#3ebed5"/>
        <rect id="Rectangle_37" data-name="Rectangle 37" width="2.423" height="12.115" transform="translate(56.535 22.054)" fill="#3ebed5"/>
        <path id="Path_58" data-name="Path 58" d="M56.94,59.85H48.6V57.864H56.94a.993.993,0,0,0,.993-.993V39h1.986V56.871A2.982,2.982,0,0,1,56.94,59.85" transform="translate(-0.233 -0.279)" fill="#3ebed5"/>
        <rect id="Rectangle_38" data-name="Rectangle 38" width="2.423" height="6.461" transform="translate(39.575 37.4)" fill="#3ebed5"/>
        <path id="Path_59" data-name="Path 59" d="M20.85,14.964A9.866,9.866,0,0,1,22.189,10H0V21.914H23.693a9.891,9.891,0,0,1-2.844-6.95" transform="translate(0.115 -0.071)" fill="#3ebed5"/>
        <path id="Path_60" data-name="Path 60" d="M39.64,10a9.9,9.9,0,0,1-1.505,11.914H61.829V10Z" transform="translate(-0.158 -0.071)" fill="#3ebed5"/>
        <path id="Path_61" data-name="Path 61" d="M30.921,25.843A10.921,10.921,0,1,1,41.843,14.921,10.934,10.934,0,0,1,30.921,25.843m0-19.857a8.936,8.936,0,1,0,8.936,8.936,8.945,8.945,0,0,0-8.936-8.936" transform="translate(-0.028 -0.029)" fill="#3ebed5"/>
        <rect id="Rectangle_39" data-name="Rectangle 39" width="3.231" height="2.423" transform="translate(17.768 13.978)" fill="#3ebed5"/>
        <rect id="Rectangle_40" data-name="Rectangle 40" width="16.153" height="2.423" transform="translate(0 13.978)" fill="#3ebed5"/>
        <rect id="Rectangle_41" data-name="Rectangle 41" width="16.961" height="2.423" transform="translate(45.228 13.978)" fill="#3ebed5"/>
        <rect id="Rectangle_42" data-name="Rectangle 42" width="4.038" height="2.423" transform="translate(40.382 13.978)" fill="#3ebed5"/>
        <path id="Path_62" data-name="Path 62" d="M28.857,56.821H26.871V33.986H10.986V56.821H9V32H28.857Z" transform="translate(0.051 -0.23)" fill="#3ebed5"/>
        <path id="Path_63" data-name="Path 63" d="M24.914,41.957H13V36H24.914Zm-9.928-1.986h7.943V37.986H14.986Z" transform="translate(0.022 -0.258)" fill="#3ebed5"/>
        <rect id="Rectangle_43" data-name="Rectangle 43" width="1.615" height="2.423" transform="translate(12.922 45.476)" fill="#3ebed5"/>
        <path id="Path_64" data-name="Path 64" d="M182.366,100.677l2.558,2.558-5.373,5.373-5.373-5.373,2.558-2.558,2.686,2.686.128.128.128-.128Zm0-.257-2.815,2.815-2.815-2.815-2.815,2.815,5.629,5.63,5.629-5.63Z" transform="translate(-148.658 -89.75)" fill="#3ebed5" stroke="#3ebed5" stroke-width="2"/>
      </g>
    </g>
  </g>
</svg>
