<svg xmlns="http://www.w3.org/2000/svg" width="77.441" height="93.435" viewBox="0 0 77.441 93.435">
  <g id="Group_43150" data-name="Group 43150" transform="translate(-197 -1435.001)">
    <g id="Group_506" data-name="Group 506" transform="translate(9.158 -59.575)">
      <g id="Group_437" data-name="Group 437" transform="translate(-193.895 -33.152)">
        <path id="Path_3785" data-name="Path 3785" d="M-10185.229,15153.141v3.928l-1.15,5.316-2.227,2.385-.5,3.906-.812,3.369-6.487,3.227-2.479,1.354-6.755,4.541v-9.121l1.416-4.627-4.38-5.951-.832-5.783v-9.137l6.158-2.219,4.393-1.17,1.415-1.039,1.9,1.039,4.62,1.615,5.062.855,1.126,2.238Z" transform="translate(10618.349 -13580.818)" fill="#2361aa" opacity="0"/>
        <g id="Group_373" data-name="Group 373" transform="translate(393 1545.153)">
          <path id="Path_29" data-name="Path 29" d="M42.808,53.9A4.9,4.9,0,1,1,37.9,49a4.9,4.9,0,0,1,4.9,4.9" transform="translate(7.457 11.073)" fill="#2361aa"/>
          <path id="Path_30" data-name="Path 30" d="M27.822,0A16.872,16.872,0,0,0,14.667,6.255,8.878,8.878,0,0,0,8,14.833V28.2H9.226a4.9,4.9,0,0,1,4.9-4.9V19.616h1.226A18.393,18.393,0,0,0,26.39,15.938a18.393,18.393,0,0,0,11.034,3.678h1.226v3.678a4.9,4.9,0,0,1,4.9,4.9h1.226V16.958A16.977,16.977,0,0,0,27.822,0" transform="translate(1.807)" fill="#2361aa"/>
          <path id="Path_31" data-name="Path 31" d="M25.486,41.48A13.5,13.5,0,0,1,12,27.994V15.734h2.452A17.27,17.27,0,0,0,24.75,12.3l.736-.552.736.552a17.27,17.27,0,0,0,10.3,3.433h2.452v12.26A13.5,13.5,0,0,1,25.486,41.48M14.452,18.186v9.808a11.034,11.034,0,1,0,22.068,0V18.186a19.764,19.764,0,0,1-11.034-3.4,19.764,19.764,0,0,1-11.034,3.4" transform="translate(2.712 2.656)" fill="#2361aa"/>
          <path id="Path_32" data-name="Path 32" d="M33,30.26V27.808a3.678,3.678,0,0,0,0-7.356V18a6.13,6.13,0,1,1,0,12.26" transform="translate(7.457 4.069)" fill="#2361aa"/>
          <path id="Path_33" data-name="Path 33" d="M14.13,30.26a6.13,6.13,0,1,1,0-12.26v2.452a3.678,3.678,0,0,0,0,7.356Z" transform="translate(1.807 4.069)" fill="#2361aa"/>
          <path id="Path_34" data-name="Path 34" d="M56.395,68.553H0V49.442a8.542,8.542,0,0,1,6.022-8.191L19.616,37V33h2.452v5.8L6.753,43.591a6.1,6.1,0,0,0-4.3,5.85V66.1H53.943V49.442a6.1,6.1,0,0,0-4.3-5.85L34.327,38.805V33h2.452v4l13.594,4.248a8.542,8.542,0,0,1,6.022,8.191Z" transform="translate(0 7.457)" fill="#2361aa"/>
          <rect id="Rectangle_17" data-name="Rectangle 17" width="28.224" height="2.452" transform="translate(34.335 74.732) rotate(-87.535)" fill="#2361aa"/>
          <rect id="Rectangle_18" data-name="Rectangle 18" width="2.452" height="18.714" transform="matrix(0.524, -0.852, 0.852, 0.524, 20.2, 46.406)" fill="#2361aa"/>
          <rect id="Rectangle_19" data-name="Rectangle 19" width="2.452" height="28.224" transform="translate(18.391 46.641) rotate(-2.49)" fill="#2361aa"/>
          <rect id="Rectangle_20" data-name="Rectangle 20" width="18.714" height="2.452" transform="translate(18.974 54.13) rotate(-31.632)" fill="#2361aa"/>
          <path id="Path_35" data-name="Path 35" d="M27.307,49.185H20.488L19.03,43.351l2.377-.593,1,3.975h2.989l.994-3.975,2.377.593Z" transform="translate(4.3 9.662)" fill="#2361aa"/>
          <rect id="Rectangle_21" data-name="Rectangle 21" width="2.452" height="17.338" transform="translate(29.435 57.795) rotate(-8.13)" fill="#2361aa"/>
          <rect id="Rectangle_22" data-name="Rectangle 22" width="17.338" height="2.452" transform="translate(22.079 74.612) rotate(-81.866)" fill="#2361aa"/>
          <rect id="Rectangle_23" data-name="Rectangle 23" width="2.961" height="14.807" transform="translate(8.997 60.71)" fill="#2361aa"/>
          <path id="Path_36" data-name="Path 36" d="M19.9,26.356H18.678a3.678,3.678,0,1,1,0-7.356H19.9a3.678,3.678,0,1,1,0,7.356m-1.226-4.9a1.226,1.226,0,1,0,0,2.452H19.9a1.226,1.226,0,1,0,0-2.452Z" transform="translate(3.39 4.293)" fill="#2361aa"/>
          <rect id="Rectangle_24" data-name="Rectangle 24" width="2.961" height="0.987" transform="translate(16.894 26.161)" fill="#2361aa"/>
          <path id="Path_37" data-name="Path 37" d="M28.9,26.356H27.678a3.678,3.678,0,1,1,0-7.356H28.9a3.678,3.678,0,1,1,0,7.356m-1.226-4.9a1.226,1.226,0,0,0,0,2.452H28.9a1.226,1.226,0,1,0,0-2.452Z" transform="translate(5.424 4.293)" fill="#2361aa"/>
          <rect id="Rectangle_25" data-name="Rectangle 25" width="2.961" height="0.987" transform="translate(36.636 26.161)" fill="#2361aa"/>
          <rect id="Rectangle_26" data-name="Rectangle 26" width="4.936" height="0.987" transform="translate(25.778 26.161)" fill="#2361aa"/>
        </g>
      </g>
    </g>
    <path id="Path_3809" data-name="Path 3809" d="M109.981-33.919,73.932,2.5l-.254.257a3.537,3.537,0,0,1-5.069,0L32.54-33.911V-52.788L47.465-68.174a3.8,3.8,0,0,1,2.727-1.146h0a3.814,3.814,0,0,1,2.739,1.157L71.141-49.541,89.409-68.164a3.811,3.811,0,0,1,2.736-1.156h0a3.815,3.815,0,0,1,2.74,1.157l15.094,15.382Z" transform="translate(164.46 1504.321)" fill="#2361aa" opacity="0.1"/>
  </g>
</svg>
