<svg xmlns="http://www.w3.org/2000/svg" width="687.896" height="655" viewBox="0 0 687.896 655">
  <path id="Path_107" data-name="Path 107" d="M-943.494,267.525l289.712,294.546a63.96,63.96,0,0,0,45.916,19.322,63.967,63.967,0,0,0,45.9-19.3l.009-.01,291.538-294.543-.034-176.407L-397.875-38.738a66.174,66.174,0,0,0-47.5-20A66.205,66.205,0,0,0-492.9-38.726L-607.847,78.466l-114.6-117.2a66.173,66.173,0,0,0-47.5-20h-.012a66.317,66.317,0,0,0-47.591,20.083L-943.494,91.192Zm335.628,321.3a71.3,71.3,0,0,1-51.19-21.533L-950.9,270.575V88.174l6.283-6.481L-822.846-43.856a73.692,73.692,0,0,1,52.883-22.313h.012A73.512,73.512,0,0,1-717.17-43.952l109.329,111.81,109.663-111.8a73.547,73.547,0,0,1,52.8-22.226A73.519,73.519,0,0,1-392.6-43.959L-263.042,88.08l.034,182.519-6.447,6.516L-556.7,567.322a71.3,71.3,0,0,1-51.166,21.506" transform="translate(950.904 66.172)" fill="#fff" opacity="0.35"/>
</svg>
