<svg xmlns="http://www.w3.org/2000/svg" width="837.909" height="797.839" viewBox="0 0 837.909 797.839">
  <g id="Group_544" data-name="Group 544" opacity="0.1">
    <path id="Path_107" data-name="Path 107" d="M-941.878,340.3l352.891,358.779a77.909,77.909,0,0,0,55.929,23.536A77.917,77.917,0,0,0-477.147,699.1l.011-.012L-122.021,340.31l-.042-214.877L-277.273-32.755a80.6,80.6,0,0,0-57.859-24.361,80.643,80.643,0,0,0-57.89,24.376L-533.035,110.008-672.63-32.755a80.6,80.6,0,0,0-57.86-24.357h-.015a80.779,80.779,0,0,0-57.969,24.463l-153.4,158.158Zm408.82,391.371a86.854,86.854,0,0,1-62.353-26.229L-950.9,344.011V121.833l7.653-7.894L-794.92-38.989A89.762,89.762,0,0,1-730.5-66.168h.015A89.542,89.542,0,0,1-666.2-39.106L-533.028,97.087-399.45-39.1a89.586,89.586,0,0,1,64.318-27.073,89.552,89.552,0,0,1,64.288,27.057l157.808,160.833L-113,344.04l-7.853,7.937L-470.734,705.471a86.845,86.845,0,0,1-62.324,26.2" transform="translate(950.904 66.172)" fill="#2361aa" opacity="0.35"/>
    <path id="Path_108" data-name="Path 108" d="M-923.378,326.955l346.409,352.182a55.558,55.558,0,0,0,39.876,16.8,55.573,55.573,0,0,0,39.88-16.8l.012-.011,348.592-352.171-.022-196.3L-297.361-20.917a58.266,58.266,0,0,0-41.811-17.626,58.257,58.257,0,0,0-41.813,17.621L-537.118,138.212l-155.6-159.134a58.246,58.246,0,0,0-41.807-17.616h-.016a58.244,58.244,0,0,0-41.8,17.616L-923.367,130.636Zm386.285,378.037a64.508,64.508,0,0,1-46.3-19.493L-932.4,330.669l.011-203.708,1.279-1.322,148.321-152.9a67.213,67.213,0,0,1,48.249-20.332h.016A67.172,67.172,0,0,1-686.29-27.27l149.177,152.561,149.7-152.572A67.208,67.208,0,0,1-339.171-47.6a67.21,67.21,0,0,1,48.238,20.321l151.328,154.229.023,203.733-1.312,1.328L-490.8,685.511a64.52,64.52,0,0,1-46.293,19.481" transform="translate(954.939 70.222)" fill="#2361aa" opacity="0.75"/>
    <path id="Path_109" data-name="Path 109" d="M-904.919,313.673-565,659.262a33.265,33.265,0,0,0,23.879,10.092,33.273,33.273,0,0,0,23.883-10.092l2.4-2.422,339.729-343.232-.034-177.757L-317.386-9.121A35.963,35.963,0,0,0-343.2-20.027h-.011A35.934,35.934,0,0,0-368.994-9.139L-541.144,166.374l-171.6-175.5a35.971,35.971,0,0,0-25.81-10.9h-.012a35.8,35.8,0,0,0-25.7,10.792L-904.919,135.776Zm363.8,364.737a42.22,42.22,0,0,1-30.3-12.786L-913.945,317.387V132.1L-770.712-15.575a44.769,44.769,0,0,1,32.139-13.508h.016a44.923,44.923,0,0,1,32.241,13.607l165.178,168.929L-375.423-15.5a44.886,44.886,0,0,1,32.212-13.584h.015a44.914,44.914,0,0,1,32.239,13.6l144.842,147.623.034,185.195-1.312,1.328L-510.772,665.583l-3.25-3.139,3.212,3.18a42.237,42.237,0,0,1-30.308,12.786" transform="translate(958.964 74.26)" fill="#2361aa"/>
  </g>
</svg>
