<svg xmlns="http://www.w3.org/2000/svg" xmlns:xlink="http://www.w3.org/1999/xlink" width="134" height="166" viewBox="0 0 134 166">
  <defs>
    <clipPath id="clip-path">
      <rect id="Rectangle_80" data-name="Rectangle 80" width="134" height="166" transform="translate(0.196 0)" fill="#1ad1ff"/>
    </clipPath>
    <clipPath id="clip-path-2">
      <rect id="Rectangle_89" data-name="Rectangle 89" width="102.847" height="165.237"/>
    </clipPath>
    <clipPath id="clip-path-9">
      <rect id="Rectangle_104" data-name="Rectangle 104" width="20.312" height="6.311"/>
    </clipPath>
  </defs>
  <g id="Group_182" data-name="Group 182" transform="translate(-148)">
    <g id="Mask_Group_4" data-name="Mask Group 4" transform="translate(147.804 0)" clip-path="url(#clip-path)">
      <g id="FortuneWorldBestWorkplaces2021" transform="translate(15.979 0.4)">
        <rect id="Rectangle_87" data-name="Rectangle 87" width="100.973" height="164.406" transform="translate(0.937 0.73)" fill="#c8a841"/>
        <rect id="Rectangle_88" data-name="Rectangle 88" width="77.268" height="26.786" transform="translate(12.791 12.598)" fill="rgba(0,0,0,0)" stroke="#e4d4aa" stroke-width="6.28"/>
        <path id="Path_285" data-name="Path 285" d="M254.958,115.708V124.7l-2.826-8.987h-2.792v16.479h2.792v-8.073l2.524,8.073h3.093V115.708Z" transform="translate(-182.382 -98.343)" fill="#fff"/>
        <path id="Path_286" data-name="Path 286" d="M135.125,115.708h-2.792v16.479h2.792v-7.064h2.587v-2.792h-2.587V118.5h4.013v-2.792Z" transform="translate(-114.322 -98.343)" fill="#fff"/>
        <path id="Path_287" data-name="Path 287" d="M208.24,115.708H200.5V118.5h2.472v13.688h2.792V118.5h2.473Z" transform="translate(-153.975 -98.343)" fill="#fff"/>
        <path id="Path_288" data-name="Path 288" d="M275.979,115.708v16.479h6.805V129.4h-4.014v-4.272h2.588v-2.792h-2.588V118.5h4.014v-2.792Z" transform="translate(-197.877 -98.343)" fill="#fff"/>
        <g id="Group_54" data-name="Group 54">
          <g id="Group_49" data-name="Group 49" clip-path="url(#clip-path-2)">
            <path id="Path_289" data-name="Path 289" d="M186.156,132.184h-2.884l-2.064-7.826a2.209,2.209,0,0,0,1.774-2.208v-2.576a1.08,1.08,0,0,0-1.081-1.081h-1.072v13.691h-2.792V115.7H181.9a3.87,3.87,0,0,1,3.864,3.7h.009V122.1h-.009a4.2,4.2,0,0,1-1.506,3.548Z" transform="translate(-140.906 -98.339)" fill="#fff"/>
          </g>
          <g id="Group_50" data-name="Group 50" clip-path="url(#clip-path-2)">
            <path id="Path_290" data-name="Path 290" d="M229.455,115.708v12.84a1.084,1.084,0,1,1-2.168,0v-12.84H224.5v12.84a3.875,3.875,0,0,0,7.751,0v-12.84Z" transform="translate(-167.93 -98.343)" fill="#fff"/>
          </g>
          <g id="Group_51" data-name="Group 51" clip-path="url(#clip-path-2)">
            <path id="Path_291" data-name="Path 291" d="M152.917,119.031v9.2a3.875,3.875,0,0,0,7.751,0v-9.2a3.872,3.872,0,0,0-3.873-3.873h0a3.872,3.872,0,0,0-3.878,3.873m2.792,9.2v-9.2a1.085,1.085,0,0,1,1.084-1.084h0a1.08,1.08,0,0,1,1.081,1.081v9.2a1.084,1.084,0,0,1-2.168,0" transform="translate(-126.295 -98.024)" fill="#fff"/>
          </g>
          <g id="Group_52" data-name="Group 52" clip-path="url(#clip-path-2)">
            <path id="Path_292" data-name="Path 292" d="M204.972,210.907a19.33,19.33,0,1,0-19.331,19.331,19.332,19.332,0,0,0,19.331-19.331" transform="translate(-134.086 -142.474)" fill="#e4d4aa"/>
          </g>
          <g id="Group_53" data-name="Group 53" clip-path="url(#clip-path-2)">
            <path id="Path_293" data-name="Path 293" d="M184.061,191.133a18.2,18.2,0,1,0,18.2,18.2,18.224,18.224,0,0,0-18.2-18.2m0,38.66a20.463,20.463,0,1,1,20.461-20.461,20.484,20.484,0,0,1-20.461,20.461" transform="translate(-132.507 -140.899)"/>
          </g>
        </g>
        <path id="Path_294" data-name="Path 294" d="M208.31,282.548l-10.456-9.539L187.4,282.548v-36.6H208.31Z" transform="translate(-146.351 -174.103)" fill="#e4d4aa"/>
        <path id="Path_295" data-name="Path 295" d="M186.948,245.507v32.9l9.329-8.5,9.326,8.5v-32.9Zm20.916,38.025-11.589-10.566-11.592,10.566V243.245h23.178v40.287Z" transform="translate(-144.772 -172.528)"/>
        <path id="Path_296" data-name="Path 296" d="M174.259,168.635l6.495,19.99h21.019l-17.006,12.354,6.5,19.99-17.006-12.354-17.006,12.354,6.495-19.99-17-12.354h21.019Z" transform="translate(-122.705 -129.13)" fill="#fff"/>
        <path id="Path_297" data-name="Path 297" d="M145.379,184.661l14.855,10.79-5.675,17.466,14.855-10.8,14.855,10.8L178.6,195.451l14.852-10.79h-18.36L169.414,167.2l-5.672,17.463Zm43.191,34.175-19.159-13.915-19.153,13.915,7.314-22.52L138.416,182.4h23.678l7.317-22.52,7.317,22.52h23.678L181.25,196.317Z" transform="translate(-117.859 -124.036)"/>
        <rect id="Rectangle_94" data-name="Rectangle 94" width="2.263" height="18.184" transform="translate(50.373 80.721)"/>
        <path id="Path_298" data-name="Path 298" d="M221.468,219.74l-1.831-1.331,2.6-3.577,1.828,1.328Z" transform="translate(-165.104 -156.002)"/>
        <rect id="Rectangle_95" data-name="Rectangle 95" width="2.263" height="4.425" transform="translate(44.146 60.154) rotate(-36.001)"/>
        <rect id="Rectangle_96" data-name="Rectangle 96" width="2.263" height="4.1" transform="translate(50.422 75.385)"/>
        <rect id="Rectangle_97" data-name="Rectangle 97" width="2.26" height="4.114" transform="matrix(0.312, -0.95, 0.95, 0.312, 57.695, 71.64)"/>
        <path id="Path_299" data-name="Path 299" d="M187.5,243.747l-.707-2.145,3.913-1.285.7,2.148Z" transform="translate(-145.999 -170.825)"/>
        <g id="Group_57" data-name="Group 57">
          <g id="Group_55" data-name="Group 55" clip-path="url(#clip-path-2)">
            <path id="Path_300" data-name="Path 300" d="M200.292,414.431a1.806,1.806,0,0,0,1.978-1.69c0-1.081-.673-1.466-1.946-1.665-1.17-.175-1.377-.463-1.377-1.023,0-.538.408-.929,1.193-.929s1.207.3,1.345,1.018h.624a1.742,1.742,0,0,0-1.969-1.578,1.661,1.661,0,0,0-1.84,1.552c0,1.018.713,1.394,1.915,1.578,1.09.175,1.386.449,1.386,1.1a1.166,1.166,0,0,1-1.305,1.081c-1.153,0-1.426-.575-1.512-1.256h-.673a1.909,1.909,0,0,0,2.182,1.817m-6.092-.072h3.482v-.569H194.9v-2.073h2.13v-.569H194.9V409.2h2.642v-.569H194.2Zm-3.162.072a2.2,2.2,0,0,0,2.395-1.969h-.65a1.581,1.581,0,0,1-1.728,1.4c-1.233,0-1.969-.88-1.969-2.337v-.063c0-1.44.794-2.36,1.978-2.36a1.439,1.439,0,0,1,1.624,1.32h.687a2.118,2.118,0,0,0-2.323-1.874,2.722,2.722,0,0,0-2.691,2.921v.063a2.6,2.6,0,0,0,2.677,2.9m-5.221-5.221.992,2.947h-1.987Zm-2.392,5.149h.656l.552-1.65h2.36l.561,1.65h.687l-1.938-5.724h-.911Zm-3.562,0h3.315v-.569h-2.619v-5.155h-.7Zm-3.668-2.884v-2.283h.977c.776,0,1.256.3,1.256,1.113v.032c0,.736-.44,1.136-1.256,1.136h-.977Zm-.7,2.884h.7v-2.329h.929c1.09,0,2-.471,2-1.69v-.032c0-1.193-.906-1.673-2-1.673H175.5Zm-4.643,0h.7v-2.794l2.553,2.794h.84l-2.674-2.947,2.544-2.777h-.776l-2.49,2.754v-2.754h-.7v5.724Zm-4.042-3.042V409.2h1.072c.776,0,1.256.256,1.256,1.032v.032c0,.7-.44,1.058-1.256,1.058Zm-.7,3.042h.7v-2.49h.88l1.7,2.49h.776l-1.754-2.539a1.538,1.538,0,0,0,1.417-1.561v-.032c0-1.144-.906-1.593-2-1.593h-1.722v5.724Zm-3.648-.506a2.155,2.155,0,0,1-2.113-2.329v-.063a2.1,2.1,0,1,1,4.172-.014v.063a2.085,2.085,0,0,1-2.058,2.343m0,.578a2.763,2.763,0,0,0,2.777-2.915v-.063a2.807,2.807,0,1,0-5.612.017v.063a2.789,2.789,0,0,0,2.835,2.9m-8.455-.072h.632l1.337-4.522,1.3,4.522h.641l1.489-5.724h-.65l-1.176,4.634-1.346-4.634h-.5l-1.345,4.62-1.161-4.62h-.713Z" transform="translate(-126.063 -268.681)"/>
          </g>
          <g id="Group_56" data-name="Group 56" clip-path="url(#clip-path-2)">
            <path id="Path_301" data-name="Path 301" d="M205.892,387.832h1.65v-4.459h1.481v-1.265h-4.611v1.265h1.481v4.459Zm-3.746.095c1.472,0,2.306-.857,2.306-1.906,0-1.242-.745-1.616-2.194-1.777-.713-.095-.888-.242-.888-.561,0-.287.224-.489.664-.489a.648.648,0,0,1,.736.615h1.521c-.1-1.208-.88-1.785-2.257-1.785s-2.217.753-2.217,1.785c0,1.153.543,1.633,2.162,1.826.687.1.906.2.906.552s-.264.569-.736.569c-.681,0-.865-.336-.906-.745h-1.561c.046,1.245.863,1.915,2.464,1.915m-6.733-.095h4.082v-1.265h-2.449v-1.041h1.849v-1.17h-1.849v-.983h2.323v-1.265h-3.956Zm-3.548-1.1v-1.354h.633c.578,0,.808.224.808.655v.032c0,.425-.241.664-.762.664h-.678Zm0-2.355V383.2h.624c.5,0,.7.175.7.569v.032c0,.408-.193.584-.7.584Zm-1.6,3.45h2.579c1.417,0,2.081-.569,2.081-1.593v-.032a1.243,1.243,0,0,0-1.144-1.337,1.178,1.178,0,0,0,.969-1.233v-.032c0-.888-.575-1.5-1.929-1.5h-2.553v5.724Z" transform="translate(-148.018 -253.254)"/>
          </g>
        </g>
        <rect id="Rectangle_100" data-name="Rectangle 100" width="78.936" height="0.328" transform="translate(12.086 137.108)" fill="#fff"/>
        <rect id="Rectangle_101" data-name="Rectangle 101" width="78.936" height="0.328" transform="translate(12.086 137.108)" fill="rgba(0,0,0,0)" stroke="#f5e3a7" stroke-width="0.785"/>
        <rect id="Rectangle_102" data-name="Rectangle 102" width="78.936" height="0.328" transform="translate(12.121 148.194)" fill="#fff"/>
        <rect id="Rectangle_103" data-name="Rectangle 103" width="78.936" height="0.328" transform="translate(12.121 148.194)" fill="rgba(0,0,0,0)" stroke="#f5e3a7" stroke-width="0.785"/>
        <path id="Path_302" data-name="Path 302" d="M190.22,351.7c3.519,0,5.422-2.015,5.422-4.453,0-2.912-1.831-3.755-5.129-4.1-1.446-.184-1.831-.477-1.831-1.1,0-.569.44-.952,1.3-.952a1.288,1.288,0,0,1,1.429,1.265h3.847c-.219-2.858-2.033-4.177-5.276-4.177-3.26,0-5.241,1.759-5.241,4.177,0,2.694,1.282,3.792,5.057,4.215,1.412.2,1.869.423,1.869,1.118,0,.641-.477,1.081-1.446,1.081-1.357,0-1.759-.679-1.831-1.5H184.45c.092,2.947,2.07,4.43,5.77,4.43m-8.188-7.877,2.564-4.689-3.134-1.009-1.429,4.928Zm-10.482,4.451v-6.722h.678c2.015,0,2.912.88,2.912,3.28v.147c0,2.291-.863,3.3-2.9,3.3h-.7Zm-4.157,3.188h5c4.617,0,7.073-2.4,7.073-6.578v-.129c0-4.16-2.38-6.394-7.073-6.394h-5Zm-10.37,0h8.924v-3.206h-4.764V338.36h-4.16Zm-8.573-7.164v-2.82h.989c1.118,0,1.685.365,1.685,1.32v.072c0,.952-.549,1.429-1.7,1.429Zm-4.143,7.164h4.14v-4.488h.658l2.438,4.488H155.9l-2.987-5.35a3.479,3.479,0,0,0,2.217-3.427v-.072c0-2.8-1.869-4.249-5.477-4.249h-5.35Zm-8.389-3.022c-1.65,0-2.694-1.228-2.694-3.461v-.147c0-2.234,1.044-3.427,2.656-3.427,1.65,0,2.711,1.21,2.711,3.427v.147c0,2.179-1.044,3.461-2.674,3.461m-.112,3.26c4.307,0,7.11-2.731,7.11-6.817v-.147c0-4.14-3-6.578-7.035-6.578-3.921,0-7,2.639-7,6.687v.147c0,3.979,2.636,6.707,6.923,6.707m-21.93-.239h4.14l1.851-7.823,1.831,7.823h4.195l3.042-13.1h-3.847l-1.593,7.915-1.777-7.915h-3.608l-1.575,7.823-1.5-7.823h-4.195Z" transform="translate(-101.817 -227.716)"/>
        <g id="Group_58" data-name="Group 58" transform="translate(76.32 139.854)">
          <path id="Path_303" data-name="Path 303" d="M273.5,408.519v.354h-.681v1.78H272.4v-1.78h-.681v-.354Zm2.306,2.133-.078-1.256c-.009-.164-.009-.368-.014-.6h-.023c-.055.187-.118.44-.181.635l-.385,1.184h-.44L274.3,409.4c-.04-.164-.1-.417-.149-.6h-.023c0,.2-.009.4-.014.6l-.078,1.256h-.408l.158-2.133h.635l.368,1.044c.046.164.086.322.141.54h.009c.055-.2.1-.377.149-.532l.368-1.052h.612l.164,2.133h-.426Z" transform="translate(-271.718 -408.519)"/>
        </g>
        <g id="Group_60" data-name="Group 60" transform="translate(41.762 150.986)">
          <g id="Group_59" data-name="Group 59" clip-path="url(#clip-path-9)">
            <path id="Path_304" data-name="Path 304" d="M207.483,441.324h1.938v-6.1h-1.665l-1.4.975v1.6l1.127-.676Zm-6.676,0h5.054v-1.435h-1.886l.7-.676a2.894,2.894,0,0,0,1.136-2.119c0-1.144-.811-1.972-2.366-1.972A2.267,2.267,0,0,0,200.9,437.5h1.742c.078-.676.316-.923.707-.923s.555.256.555.607c0,.5-.411,1.015-1.024,1.673l-2.076,2.2Zm-3.237-1.383c-.71,0-.992-.486-.992-1.552v-.239c0-1.058.282-1.553.975-1.553s.966.494.966,1.561v.221c0,1.058-.264,1.561-.949,1.561m-.06,1.495a2.778,2.778,0,0,0,2.93-3.091v-.23a2.719,2.719,0,0,0-2.9-2.987,2.779,2.779,0,0,0-2.887,3.03v.239a2.7,2.7,0,0,0,2.852,3.039m-8.4-.112h5.054v-1.435h-1.886l.7-.676a2.894,2.894,0,0,0,1.136-2.119c0-1.144-.811-1.972-2.366-1.972A2.267,2.267,0,0,0,189.2,437.5h1.742c.078-.676.316-.923.71-.923s.555.256.555.607c0,.5-.411,1.015-1.024,1.673l-2.076,2.2v.267Z" transform="translate(-189.108 -435.126)" fill="#fff"/>
          </g>
        </g>
      </g>
    </g>
  </g>
</svg>
